<svg version="1.2" xmlns="http://www.w3.org/2000/svg" viewBox="0 0 1024 1024" width="1024" height="1024">
	<defs>
		<clipPath clipPathUnits="userSpaceOnUse" id="cp1">
			<path d="m1024 0v1024h-1024v-1024z"/>
		</clipPath>
	</defs>
	<style>
		.s0 { fill: #4fa98a } 
		.s1 { fill: #fefefe } 
	</style>
	<g id="Clip-Path" clip-path="url(#cp1)">
		<g>
			<path class="s0" d="m0 0c337.92 0 675.84 0 1024 0 0 337.92 0 675.84 0 1024-337.92 0-675.84 0-1024 0 0-337.92 0-675.84 0-1024z"/>
			<path class="s1" d="m600.79 113.26q0 0.64 0 1.3 0.54 0.07 1.09 0.14c7.23 2.47 12.59 12.93 15.82 19.39 6.77 14.25 7.03 30.51 1.87 45.34q-0.76 2.1-1.54 4.19c-0.96 2.6-1.74 5.22-2.49 7.89-1.41 4.97-3.03 9.87-4.67 14.77-2.08 6.18-4.02 12.38-5.81 18.65-1.58 5.47-3.3 10.88-5.24 16.23q-1.7 4.7-3.05 9.51c-1.52 5.38-3.3 10.69-5.08 15.99-1.7 5.09-3.41 10.17-4.87 15.34-1.59 5.61-3.46 11.13-5.31 16.65-1.71 5.11-3.37 10.21-4.83 15.39-1.25 4.38-2.71 8.69-4.16 13-2.07 6.19-4.02 12.38-5.81 18.65-1.58 5.47-3.29 10.89-5.24 16.24-1.54 4.25-2.81 8.56-4.06 12.91-1.88 6.53-3.97 13-6.11 19.44q-0.27 0.8-0.55 1.63-0.65 1.96-1.3 3.92 0.83 0 1.69 0 49.53-0.07 99.05-0.1 5.96 0 11.91-0.01c1.18 0 1.18 0 2.39 0q19.17-0.01 38.33-0.04 19.68-0.03 39.35-0.03 12.14-0.01 24.28-0.03 8.33-0.02 16.66-0.01 4.79 0 9.6-0.01 4.4-0.02 8.81-0.01 1.58 0 3.16 0c21.88-0.13 40.77 6.99 56.64 22.3 12.94 12.94 20 30.92 20.89 49.09q0.06 0.89 0.12 1.8c0.54 13.77-3.47 27.62-10.52 39.33q-0.6 1-1.21 2.03c-2.29 3.75-2.29 3.75-3.34 5.15q-0.64 0-1.3 0c-0.21 0.52-0.21 0.52-0.42 1.05-1.23 2.17-2.88 3.88-4.57 5.68q-0.52 0.56-1.06 1.14-2.83 3.04-5.77 5.96c-1.81 1.62-1.81 1.62-2.48 3.14q-0.64 0-1.3 0 0 0.65 0 1.31-0.64 0-1.3 0 0 0.64 0 1.3-0.64 0-1.3 0 0 0.65 0 1.31-0.64 0-1.3 0 0 0.64 0 1.31-0.64 0-1.3 0 0 0.64 0 1.3-0.64 0-1.3 0 0 0.64 0 1.31-0.64 0-1.3 0 0 0.64 0 1.3-0.64 0-1.3 0-0.26 0.58-0.53 1.18c-0.77 1.44-1.54 2.36-2.69 3.5q-0.58 0.58-1.18 1.18-0.63 0.62-1.27 1.25-0.65 0.65-1.32 1.31-2.08 2.08-4.18 4.15-2.08 2.05-4.14 4.11-1.29 1.28-2.58 2.56c-2.49 2.47-4.83 5.02-7.11 7.69-1.32 1.52-2.72 2.92-4.16 4.32-1.92 1.82-1.92 1.82-3.34 4q-0.64 0-1.3 0 0 0.65 0 1.31-0.64 0-1.29 0 0 0.64 0 1.3-0.65 0-1.3 0 0 0.65 0 1.31-0.65 0-1.3 0 0 0.64 0 1.3-0.65 0-1.3 0 0 0.65 0 1.31-0.65 0-1.3 0 0 0.64 0 1.31-0.64 0-1.3 0 0 0.64 0 1.3-0.64 0-1.3 0-0.26 0.58-0.53 1.18c-0.78 1.44-1.54 2.36-2.69 3.5-0.59 0.59-0.59 0.59-1.19 1.18q-0.62 0.62-1.27 1.25-0.64 0.65-1.31 1.31-2.08 2.08-4.19 4.15-2.07 2.05-4.14 4.11-1.28 1.28-2.57 2.56c-2.49 2.47-4.84 5.02-7.11 7.69-1.32 1.51-2.73 2.92-4.16 4.32-1.93 1.82-1.93 1.82-3.34 4q-0.64 0-1.3 0 0 0.65 0 1.31-0.64 0-1.3 0 0 0.64 0 1.3-0.64 0-1.3 0 0 0.65 0 1.31-0.64 0-1.3 0 0 0.64 0 1.3-0.64 0-1.3 0 0 0.65 0 1.31-0.64 0-1.3 0 0 0.64 0 1.31-0.64 0-1.3 0 0 0.64 0 1.3-0.64 0-1.3 0-0.26 0.58-0.53 1.18c-0.77 1.44-1.54 2.36-2.69 3.5-0.58 0.59-0.58 0.59-1.18 1.18q-0.63 0.62-1.27 1.25-0.65 0.65-1.31 1.31-2.1 2.08-4.19 4.15-2.07 2.05-4.14 4.11-1.29 1.28-2.58 2.56c-2.49 2.47-4.83 5.02-7.11 7.69-1.32 1.51-2.73 2.92-4.16 4.32-1.92 1.82-1.92 1.82-3.33 4q-0.64 0-1.3 0 0 0.64 0 1.31-0.64 0-1.3 0 0 0.64 0 1.3-0.64 0-1.3 0 0 0.65 0 1.31-0.64 0-1.3 0 0 0.64 0 1.3-0.64 0-1.3 0 0 0.65 0 1.31-0.64 0-1.3 0 0 0.64 0 1.31-0.64 0-1.3 0 0 0.64 0 1.3-0.64 0-1.3 0-0.26 0.58-0.53 1.18c-0.77 1.44-1.54 2.36-2.7 3.5-0.58 0.59-0.58 0.59-1.17 1.18q-0.63 0.61-1.28 1.25-0.64 0.65-1.31 1.31-2.09 2.08-4.18 4.15-2.08 2.05-4.15 4.11-1.28 1.28-2.57 2.56c-2.48 2.46-4.82 5-7.09 7.66-1.82 2.09-3.81 4-5.79 5.94-1.74 1.69-1.74 1.69-3.03 3.72q-0.64 0-1.3 0 0 0.64 0 1.3-0.64 0-1.3 0 0 0.65 0 1.31c-1.22 1.39-1.22 1.39-2.6 2.61q-0.64 0-1.3 0 0 0.64 0 1.3-0.64 0-1.3 0 0 0.65 0 1.31c-1.05 1.13-2.13 2.2-3.24 3.26q-1.05 1.04-2.09 2.09c-0.56 0.56-0.56 0.56-1.14 1.14q-2.55 2.54-5.1 5.1-1.34 1.34-2.68 2.68-1.95 1.94-3.9 3.9-0.58 0.58-1.19 1.18c-2.42 2.44-4.72 4.96-6.95 7.57-1.32 1.52-2.73 2.93-4.17 4.33-1.92 1.81-1.92 1.81-3.33 4q-0.64 0-1.3 0 0 0.64 0 1.31-0.64 0-1.3 0 0 0.64 0 1.3-0.64 0-1.3 0 0 0.64 0 1.31-0.64 0-1.3 0 0 0.64 0 1.3-0.64 0-1.3 0 0 0.65 0 1.31-0.64 0-1.3 0 0 0.64 0 1.3-0.64 0-1.3 0 0 0.65 0 1.31-0.64 0-1.3 0-0.26 0.58-0.53 1.17c-0.77 1.45-1.54 2.37-2.69 3.51q-0.58 0.58-1.18 1.18-0.63 0.61-1.27 1.25-0.65 0.64-1.32 1.31-2.09 2.08-4.18 4.15-2.08 2.05-4.15 4.11-1.28 1.28-2.57 2.56c-2.49 2.47-4.84 5.02-7.11 7.69-1.32 1.51-2.73 2.92-4.17 4.32-1.91 1.82-1.91 1.82-3.33 4q-0.64 0-1.3 0 0 0.64 0 1.3-0.64 0-1.3 0 0 0.65 0 1.31-0.64 0-1.3 0 0 0.64 0 1.31-0.64 0-1.3 0 0 0.64 0 1.3-0.64 0-1.3 0 0 0.64 0 1.31-0.64 0-1.3 0 0 0.64 0 1.3-0.64 0-1.3 0 0 0.64 0 1.31-0.63 0-1.3 0-0.26 0.58-0.52 1.17c-0.78 1.45-1.55 2.37-2.7 3.51q-0.58 0.58-1.18 1.17-0.62 0.63-1.27 1.26-0.65 0.64-1.32 1.31-2.08 2.08-4.18 4.14-2.07 2.06-4.14 4.13-1.29 1.27-2.58 2.55c-2.49 2.47-4.84 5.02-7.12 7.69-1.26 1.46-2.61 2.81-3.99 4.16-1.6 1.59-3.14 3.16-4.55 4.94-1.22 1.45-2.3 2.51-3.73 3.71-1.67 1.38-3.09 2.82-4.49 4.48-2.26 2.63-4.65 5.09-7.11 7.53q-0.64 0.64-1.3 1.31-2.73 2.71-5.46 5.42-2 2-4.01 4-0.6 0.6-1.22 1.21c-2.45 2.45-4.77 4.98-7.02 7.62-1.32 1.52-2.73 2.93-4.16 4.33-1.92 1.81-1.92 1.81-3.34 4q-0.64 0-1.3 0 0 0.64 0 1.31-0.64 0-1.3 0 0 0.64 0 1.3c-1.21 1.39-1.21 1.39-2.59 2.61q-0.65 0-1.3 0 0 0.65 0 1.31-0.64 0-1.3 0 0 0.64 0 1.31c-2.8 3.1-2.8 3.1-5.2 3.91q0 0.64 0 1.31c-10.53 10.09-24.75 15.78-39.33 15.72-2.64-0.09-5.2-0.49-7.79-0.92q-0.77-0.11-1.56-0.23c-14.37-2.3-27.05-10.74-35.57-22.45-8.37-12.34-12.11-27.66-9.39-42.42 2.39-11.27 6.37-22.37 10.02-33.29q1.06-3.24 2.05-6.5 2-6.45 4.17-12.85c3.25-9.62 3.25-9.62 6.19-19.34 1.37-4.84 2.95-9.6 4.55-14.37 1.7-5.07 3.37-10.15 4.87-15.29 1.65-5.62 3.41-11.19 5.2-16.77q0.21-0.65 0.43-1.32 2.62-8.15 5.34-16.26 2.12-6.32 3.94-12.72c2.06-7.12 4.41-14.15 6.69-21.2q1.79-5.58 3.55-11.17 2.37-7.49 4.87-14.93 2.6-7.73 4.84-15.56c1.13-3.92 2.39-7.8 3.63-11.68q0.36-1.12 0.73-2.28 0.88-2.76 1.77-5.53-0.83 0-1.69 0-49.49-0.05-98.99-0.15-5.95-0.01-11.9-0.02-1.18 0-2.39 0-19.15-0.04-38.3-0.05-19.67-0.03-39.34-0.07-12.12-0.03-24.25-0.03-8.32-0.01-16.65-0.03-4.79-0.02-9.59-0.02c-30.85 0.02-30.85 0.02-41.48-4.32q-0.76-0.29-1.53-0.59c-7.42-3-13.97-7.05-20-12.34-0.93-0.78-0.93-0.78-1.88-1.58-13.27-11.41-22.15-28.68-24.12-46.08-1.43-21.35 2.99-40.85 16.9-57.44q1.85-1.99 3.82-3.85c1.17-1.16 2.22-2.35 3.28-3.61 3.83-4.43 8.08-8.48 12.23-12.6 4.94-4.85 4.94-4.85 9.59-9.97 3.67-4.33 7.83-8.23 11.86-12.22 4.94-4.85 4.94-4.85 9.59-9.97 3.67-4.34 7.83-8.23 11.86-12.23 4.93-4.85 4.93-4.85 9.58-9.97 3.67-4.33 7.84-8.23 11.86-12.22 4.94-4.85 4.94-4.85 9.59-9.97 3.67-4.33 7.84-8.23 11.86-12.23 4.94-4.85 4.94-4.85 9.59-9.97 3.67-4.33 7.83-8.23 11.86-12.22 4.94-4.85 4.94-4.85 9.59-9.97 3.67-4.33 7.83-8.23 11.86-12.23 4.93-4.85 4.93-4.85 9.58-9.97 3.67-4.33 7.84-8.23 11.86-12.22 4.94-4.85 4.94-4.85 9.59-9.97 3.67-4.33 7.84-8.23 11.86-12.23 4.94-4.85 4.94-4.85 9.59-9.97 3.67-4.33 7.83-8.23 11.86-12.22 4.93-4.85 4.93-4.85 9.59-9.97 3.67-4.33 7.83-8.23 11.86-12.23 4.93-4.85 4.93-4.85 9.58-9.97 3.67-4.33 7.84-8.23 11.86-12.22 4.94-4.85 4.94-4.85 9.59-9.97 3.67-4.33 7.83-8.23 11.86-12.23 4.94-4.85 4.94-4.85 9.59-9.97 3.67-4.33 7.83-8.23 11.86-12.22 4.93-4.85 4.93-4.85 9.58-9.97 3.68-4.33 7.84-8.23 11.86-12.23 4.94-4.85 4.94-4.85 9.59-9.97 3.67-4.33 7.84-8.23 11.86-12.22q1.67-1.66 3.33-3.32 0.5-0.49 1.01-0.99c2.23-2.23 4.31-4.57 6.37-6.96 3.04-3.46 6.31-6.71 9.53-9.99q1.32-1.35 2.63-2.71c20.71-21.52 51.95-28.82 77.38-10.15z"/>
		</g>
	</g>
</svg>